<?xml version="1.0" encoding="UTF-8"?>
<svg fill="none" viewBox="0 0 43 35" xmlns="http://www.w3.org/2000/svg">
<g filter="url(#a)">
<rect x="3.4419" y="2" width="36.116" height="28.318" rx="3" fill="#fff"/>
</g>
<path d="m26.337 19.131c-0.1975 0.4542-0.4312 0.8722-0.7021 1.2566-0.3692 0.524-0.6714 0.8867-0.9044 1.0881-0.3611 0.3306-0.7481 0.5-1.1624 0.5096-0.2975 0-0.6562-0.0843-1.0737-0.2552-0.419-0.1701-0.8039-0.2544-1.156-0.2544-0.3692 0-0.7651 0.0843-1.1886 0.2544-0.4242 0.1709-0.7659 0.26-1.0272 0.2688-0.3973 0.0169-0.7933-0.1573-1.1886-0.5232-0.2523-0.219-0.5679-0.5946-0.946-1.1266-0.4056-0.5681-0.7391-1.2269-1.0004-1.978-0.2798-0.8113-0.42-1.5969-0.42-2.3574 0-0.8713 0.1891-1.6227 0.5679-2.2523 0.2977-0.5058 0.6937-0.9048 1.1894-1.1977 0.4956-0.2929 1.0312-0.4421 1.608-0.4517 0.3156 0 0.7294 0.0972 1.2437 0.2882 0.5128 0.1916 0.8421 0.2888 0.9865 0.2888 0.1079 0 0.4738-0.1137 1.0939-0.3402 0.5864-0.2101 1.0814-0.2971 1.4868-0.2628 1.0987 0.0883 1.9242 0.5194 2.4731 1.2962-0.9826 0.5927-1.4687 1.4228-1.459 2.4877 0.0089 0.8295 0.3112 1.5198 0.9052 2.0679 0.2693 0.2543 0.57 0.4509 0.9045 0.5906-0.0726 0.2094-0.1491 0.41-0.2306 0.6026zm-2.5198-9.8709c0 0.65015-0.2386 1.2572-0.7142 1.8191-0.574 0.6679-1.2682 1.0539-2.021 0.993-0.0096-0.078-0.0151-0.1601-0.0151-0.2463 0-0.6242 0.2729-1.2921 0.7576-1.8383 0.242-0.27652 0.5498-0.50644 0.923-0.68986 0.3724-0.18068 0.7247-0.2806 1.056-0.29771 0.0097 0.08692 0.0137 0.17384 0.0137 0.26007v1e-5z" fill="#000"/>
<defs>
<filter id="a" x=".4419" y="0" width="42.116" height="34.318" color-interpolation-filters="sRGB" filterUnits="userSpaceOnUse">
<feFlood flood-opacity="0" result="BackgroundImageFix"/>
<feColorMatrix in="SourceAlpha" result="hardAlpha" values="0 0 0 0 0 0 0 0 0 0 0 0 0 0 0 0 0 0 127 0"/>
<feOffset dy="1"/>
<feGaussianBlur stdDeviation="1.5"/>
<feColorMatrix values="0 0 0 0 0.196078 0 0 0 0 0.196078 0 0 0 0 0.278431 0 0 0 0.1 0"/>
<feBlend in2="BackgroundImageFix" result="effect1_dropShadow_1718_66067"/>
<feColorMatrix in="SourceAlpha" result="hardAlpha" values="0 0 0 0 0 0 0 0 0 0 0 0 0 0 0 0 0 0 127 0"/>
<feOffset/>
<feGaussianBlur stdDeviation="0.5"/>
<feColorMatrix values="0 0 0 0 0.0470588 0 0 0 0 0.101961 0 0 0 0 0.294118 0 0 0 0.2 0"/>
<feBlend in2="effect1_dropShadow_1718_66067" result="effect2_dropShadow_1718_66067"/>
<feBlend in="SourceGraphic" in2="effect2_dropShadow_1718_66067" result="shape"/>
</filter>
</defs>
</svg>
