<?xml version="1.0" encoding="UTF-8"?>
<svg fill="none" viewBox="0 0 43 35" xmlns="http://www.w3.org/2000/svg">
<g filter="url(#a)">
<rect x="3.5581" y="2" width="36.116" height="28.318" rx="3" fill="#fff"/>
</g>
<path d="m23.305 13.818v1.7045h-5.0497v-1.7045h5.0497zm-3.8938 8.1818v-8.7731c0-0.593 0.1154-1.0849 0.3462-1.4755 0.2344-0.3906 0.554-0.6836 0.9588-0.8789s0.8647-0.293 1.3796-0.293c0.348 0 0.6659 0.0267 0.9535 0.0799 0.2912 0.0533 0.5078 0.1013 0.6499 0.1439l-0.4049 1.7045c-0.0887-0.0284-0.1988-0.055-0.3302-0.0799-0.1279-0.0248-0.2592-0.0373-0.3942-0.0373-0.3338 0-0.5664 0.0782-0.6978 0.2344-0.1314 0.1527-0.1971 0.3675-0.1971 0.6445v8.7305h-2.2638z" fill="#3B5999"/>
<defs>
<filter id="a" x=".5581" y="0" width="42.116" height="34.318" color-interpolation-filters="sRGB" filterUnits="userSpaceOnUse">
<feFlood flood-opacity="0" result="BackgroundImageFix"/>
<feColorMatrix in="SourceAlpha" result="hardAlpha" values="0 0 0 0 0 0 0 0 0 0 0 0 0 0 0 0 0 0 127 0"/>
<feOffset dy="1"/>
<feGaussianBlur stdDeviation="1.5"/>
<feColorMatrix values="0 0 0 0 0.196078 0 0 0 0 0.196078 0 0 0 0 0.278431 0 0 0 0.1 0"/>
<feBlend in2="BackgroundImageFix" result="effect1_dropShadow_1718_66067"/>
<feColorMatrix in="SourceAlpha" result="hardAlpha" values="0 0 0 0 0 0 0 0 0 0 0 0 0 0 0 0 0 0 127 0"/>
<feOffset/>
<feGaussianBlur stdDeviation="0.5"/>
<feColorMatrix values="0 0 0 0 0.0470588 0 0 0 0 0.101961 0 0 0 0 0.294118 0 0 0 0.2 0"/>
<feBlend in2="effect1_dropShadow_1718_66067" result="effect2_dropShadow_1718_66067"/>
<feBlend in="SourceGraphic" in2="effect2_dropShadow_1718_66067" result="shape"/>
</filter>
</defs>
</svg>
